<svg width="48.00000000000001" height="48.00000000000001" xmlns="http://www.w3.org/2000/svg">

 <g>
  <title>Layer 1</title>
  <g stroke="null" id="svg_3">
   <path stroke="null" d="m47.87111,24.05427c0,13.1436 -10.64233,23.79785 -23.76888,23.79785c-13.12655,0 -23.76888,-10.65425 -23.76888,-23.79785c0,-13.1436 10.64233,-23.79785 23.76888,-23.79785c13.12655,0 23.76888,10.65425 23.76888,23.79785" fill="#c6c6c6" id="svg_1"/>
   <path stroke="null" fill="white" id="svg_2" d="m21.17006,13.57282l5.58289,0c0.94109,0 1.77307,0.60183 2.06858,1.49411l0.47282,1.41945l3.39611,0c1.60486,0 2.90966,1.30655 2.90966,2.91358l0,11.65428c0,1.60702 -1.30479,2.91358 -2.90966,2.91358l-17.45789,0c-1.60713,0 -2.90966,-1.30655 -2.90966,-2.91358l0,-11.65428c0,-1.60702 1.30252,-2.91358 2.90966,-2.91358l3.39611,0l0.47282,-1.41945c0.29551,-0.89228 1.12749,-1.49411 2.06858,-1.49411l0,0l-0.00001,0zm2.79144,16.02465c2.40955,0 4.36447,-1.95756 4.36447,-4.37035c0,-2.45377 -1.95492,-4.37035 -4.36447,-4.37035c-2.45047,0 -4.36447,1.91659 -4.36447,4.37035c0,2.4128 1.91401,4.37035 4.36447,4.37035z"/>
  </g>
 </g>
</svg>