<svg xmlns="http://www.w3.org/2000/svg" viewBox="0 0 64 64">
  <path d="M64 29.607c0 16.352-13.88 29.607-31 29.607-17.12 0-31-13.255-31-29.607C2 13.255 15.88 0 33 0c17.12 0 31 13.255 31 29.607" fill="#c6c6c6"/>
     <path fill="white" stroke="null" id="svg_2" d="m29.35078,15.03268l7.47708,0c1.26039,0 2.37465,0.80494 2.77042,1.99835l0.63324,1.89849l4.54836,0c2.14936,0 3.89686,1.74749 3.89686,3.89686l0,15.5874c0,2.14936 -1.74749,3.89686 -3.89686,3.89686l-23.38111,0c-2.1524,0 -3.89686,-1.74749 -3.89686,-3.89686l0,-15.5874c0,-2.14936 1.74445,-3.89686 3.89686,-3.89686l4.54836,0l0.63324,-1.89849c0.39577,-1.19341 1.51003,-1.99835 2.77042,-1.99835l0,0zm3.73854,21.43269c3.22708,0 5.84527,-2.6182 5.84527,-5.84527c0,-3.28188 -2.6182,-5.84527 -5.84527,-5.84527c-3.28188,0 -5.84527,2.5634 -5.84527,5.84527c0,3.22708 2.5634,5.84527 5.84527,5.84527z"/>
</svg>