<svg width="48" height="48" xmlns="http://www.w3.org/2000/svg">
 <g>
  <title>Layer 1</title>
  <ellipse stroke="null" fill="#a5a5a5" cx="23.9602" cy="23.95432" id="svg_6" rx="23.77017" ry="23.80988"/>
  <path stroke="null" d="m31.52669,27.79108l0,2.5618c0,0.7073 -0.67522,1.2809 -1.50782,1.2809l-12.06257,0c-0.8326,0 -1.50782,-0.5736 -1.50782,-1.2809l0,-2.5618c0,-0.7073 -0.67522,-1.2809 -1.50782,-1.2809s-1.50782,0.5736 -1.50782,1.2809l0,2.5618c0,2.12229 2.0252,3.8427 4.52347,3.8427l12.06257,0c2.49827,0 4.52347,-1.7204 4.52347,-3.8427l0,-2.5618c0,-0.7073 -0.67522,-1.2809 -1.50782,-1.2809s-1.50782,0.5724 -1.50782,1.2809l-0.00001,0zm-8.604,-13.71462l-6.03129,5.1236c-0.58947,0.50075 -0.58852,1.31132 0,1.81127c0.58899,0.50035 1.54316,0.50035 2.13216,0l3.45621,-2.93506l0,8.43392c0,0.7081 0.67428,1.2809 1.50782,1.2809s1.50782,-0.5728 1.50782,-1.2809l0,-8.43392l3.45762,2.93726c0.58899,0.50035 1.54316,0.50035 2.13216,0s0.58899,-1.31092 0,-1.81127l-6.03129,-5.1236c-0.59041,-0.50255 -1.54222,-0.50255 -2.13121,-0.0022l0,0.00001z" id="svg_3" fill="#ffffff"/>
 </g>

</svg>